<?xml version="1.0" encoding="UTF-8" standalone="no"?>
<!DOCTYPE svg PUBLIC "-//W3C//DTD SVG 1.1//EN" "http://www.w3.org/Graphics/SVG/1.1/DTD/svg11.dtd">
<svg width="100%" height="100%" viewBox="0 0 897 826" version="1.1" xmlns="http://www.w3.org/2000/svg" xmlns:xlink="http://www.w3.org/1999/xlink" xml:space="preserve" xmlns:serif="http://www.serif.com/" style="fill-rule:evenodd;clip-rule:evenodd;stroke-linejoin:round;stroke-miterlimit:2;">
    <g transform="matrix(1,0,0,1,-1305.56,-2002.28)">
        <path d="M1305.56,2828.28L1364.56,2002.28L2147.8,2002.28L2202.31,2828.28L1305.56,2828.28ZM1309.84,2824.35L1310.77,2811.33C1319.71,2812.04 1326.86,2817.47 1328.03,2824.35L1309.84,2824.35ZM1331.86,2824.35L1509,2824.33L1511.98,2670.32L1641.73,2670.28C1644.98,2646.31 1694.7,2627.28 1755.56,2627.28C1816.42,2627.28 1866.14,2646.31 1869.39,2670.28L1999.14,2670.25L2001.96,2824.29L2176.12,2824.28C2177.35,2815.81 2186.14,2809.1 2197.11,2808.34L2169.38,2388.28L1883.56,2388.28C1883.56,2437.43 1826.25,2476.28 1755.56,2476.28C1684.87,2476.28 1627.56,2437.43 1627.56,2388.28L1340.99,2388.28L1310.98,2808.38C1321.92,2809.18 1330.66,2815.89 1331.86,2824.35ZM1896.54,2824.3L1997.98,2824.29L1995.22,2674.28L1515.91,2674.28L1512,2824.33L1613.54,2824.32L1613.56,2749.28L1896.56,2749.28L1896.54,2824.3ZM1892.53,2824.23L1617.48,2824.32L1617.56,2753.28L1892.56,2753.28L1892.53,2824.23ZM2197.31,2811.29L2198.16,2824.28L2179.95,2824.28C2181.15,2817.39 2188.34,2811.97 2197.31,2811.29ZM1645.76,2670.28L1865.37,2670.28C1861.94,2648.52 1814.09,2631.28 1755.56,2631.28C1697.04,2631.28 1649.18,2648.52 1645.76,2670.28ZM1879.56,2387.28C1879.56,2434.22 1824.05,2472.28 1755.56,2472.28C1687.08,2472.28 1631.56,2434.22 1631.56,2387.28C1631.56,2340.33 1687.08,2302.28 1755.56,2302.28C1824.05,2302.28 1879.56,2340.33 1879.56,2387.28ZM2124.11,2006.28L1986.77,2006.28L1988.98,2126.24L1862.49,2126.28C1860.36,2147.4 1813.53,2164.28 1756.06,2164.28C1698.6,2164.28 1651.76,2147.4 1649.64,2126.28L1522.56,2126.28L1524.77,2006.28L1388.34,2006.28C1387.1,2014.8 1378.21,2021.52 1367.14,2022.21L1341.28,2384.28L1627.56,2384.28C1627.56,2335.12 1684.87,2298.28 1755.56,2298.28C1826.25,2298.28 1883.56,2335.12 1883.56,2384.28L2169.11,2384.28L2145.21,2022.22C2134.18,2021.49 2125.35,2014.77 2124.11,2006.28ZM1756.06,2160.8C1700.74,2160.8 1655.63,2145.48 1653.39,2126.28L1858.74,2126.28C1856.5,2145.48 1811.38,2160.8 1756.06,2160.8ZM1525.74,2123.28L1527.89,2006.28L1631.56,2006.28L1631.56,2063.28L1880.56,2063.28L1880.56,2006.28L1983.65,2006.28L1985.8,2123.28L1525.74,2123.28ZM1635.56,2059.28L1635.56,2006.28L1876.56,2006.28L1876.56,2059.28L1635.56,2059.28ZM2127.94,2006.28L2144.15,2006.28L2145.01,2019.24C2136.18,2018.47 2129.13,2013.09 2127.94,2006.28ZM1368.28,2006.28L1384.51,2006.28C1383.31,2013.11 1376.22,2018.49 1367.35,2019.23L1368.28,2006.28Z" style="fill:white;"/>
    </g>
</svg>
