<?xml version="1.0" standalone="no"?>
<!DOCTYPE svg PUBLIC "-//W3C//DTD SVG 20010904//EN"
 "http://www.w3.org/TR/2001/REC-SVG-20010904/DTD/svg10.dtd">
<svg version="1.0" xmlns="http://www.w3.org/2000/svg"
 width="672.000000pt" height="672.000000pt" viewBox="0 0 672.000000 672.000000"
 preserveAspectRatio="xMidYMid meet">
<metadata>
Created by potrace 1.14, written by Peter Selinger 2001-2017
</metadata>
<g transform="translate(0.000000,672.000000) scale(0.100000,-0.100000)"
fill="#000000" stroke="none">
<path d="M868 6663 c-187 -239 -362 -616 -402 -863 -3 -19 -8 -46 -10 -59 -24
-115 -24 -385 -1 -506 36 -187 110 -380 212 -549 36 -60 118 -180 138 -202 5
-7 24 -29 42 -50 177 -219 420 -425 698 -596 142 -86 273 -153 463 -234 371
-158 702 -344 899 -505 22 -19 60 -50 84 -69 108 -88 286 -288 336 -379 25
-46 36 -48 55 -9 68 141 316 384 584 573 172 121 455 269 753 394 139 58 251
113 356 174 74 42 257 158 265 167 3 3 39 30 80 60 41 30 80 59 86 65 6 5 44
39 85 75 124 110 291 287 297 316 2 8 7 14 12 14 16 0 166 235 218 341 45 93
104 253 116 314 3 11 9 42 15 68 32 136 34 376 5 547 -9 57 -46 214 -52 225
-4 6 -7 15 -8 22 -5 32 -73 199 -118 288 -65 131 -164 294 -218 360 -9 11 -26
31 -37 45 l-21 25 4 -30 c24 -166 25 -602 1 -726 -2 -9 -6 -40 -10 -69 -4 -29
-9 -62 -11 -74 -2 -12 -7 -36 -10 -55 -34 -204 -133 -465 -239 -631 -26 -41
-51 -77 -54 -80 -3 -3 -19 -23 -36 -45 -25 -35 -170 -181 -207 -210 -96 -75
-247 -156 -383 -205 -93 -34 -116 -42 -125 -45 -3 -1 -18 -7 -33 -13 -16 -7
-34 -12 -42 -12 -8 0 -16 -4 -20 -9 -3 -5 -19 -12 -35 -16 -17 -4 -30 -11 -30
-17 0 -6 -3 -9 -6 -5 -6 5 -99 -32 -215 -86 -30 -14 -61 -28 -69 -31 -64 -24
-519 -272 -531 -289 -3 -5 -10 -9 -15 -9 -10 -1 -19 -6 -137 -82 -48 -31 -92
-56 -97 -56 -4 0 -10 -3 -12 -8 -1 -4 -31 -27 -66 -50 l-63 -43 -130 85 c-71
47 -134 86 -139 86 -6 0 -10 5 -10 10 0 6 -4 10 -10 10 -5 0 -40 19 -77 43
-38 24 -81 50 -98 59 -16 9 -77 42 -135 75 -188 106 -672 333 -710 333 -5 0
-26 7 -47 16 -56 25 -72 31 -143 55 -257 87 -475 248 -634 469 -53 74 -106
161 -127 210 -5 14 -22 50 -36 80 -24 52 -88 236 -98 286 -3 13 -7 34 -10 47
-25 116 -35 168 -41 222 -3 28 -8 61 -10 75 -25 135 -17 674 10 719 4 6 3 11
-1 11 -5 0 -25 -21 -45 -47z"/>
<path d="M536 3709 c2 -19 6 -54 9 -79 7 -69 38 -207 55 -245 8 -19 22 -54 25
-65 25 -82 117 -220 209 -314 63 -65 177 -156 194 -156 6 0 12 -3 14 -7 4 -11
109 -65 188 -98 75 -32 215 -76 290 -91 172 -35 179 -36 310 -49 30 -3 58 -11
62 -18 4 -6 17 -43 28 -82 12 -38 37 -115 56 -170 19 -55 36 -107 38 -115 4
-17 79 -206 103 -260 96 -216 297 -586 326 -598 4 -2 7 -8 7 -14 0 -8 47 -81
72 -113 31 -38 78 -105 78 -110 0 -4 -24 -57 -54 -118 -42 -89 -95 -223 -101
-257 -2 -11 -15 -77 -21 -100 -3 -14 -6 -63 -6 -110 -2 -256 143 -421 437
-495 120 -31 300 -52 309 -37 21 34 21 599 1 842 -2 25 -6 79 -9 120 -4 41 -9
92 -11 115 -3 22 -8 65 -11 95 -7 66 -11 104 -19 147 -9 54 -15 96 -20 138 -3
22 -9 51 -12 65 -3 14 -8 34 -10 45 -11 67 -27 139 -45 205 -11 41 -22 83 -24
93 -2 9 -6 25 -8 35 -12 48 -63 198 -98 287 -118 299 -245 491 -477 722 -160
160 -392 328 -590 425 -58 29 -107 56 -109 61 -2 4 -9 7 -15 7 -6 0 -31 9 -56
21 -25 11 -55 24 -66 29 -11 4 -37 15 -57 24 -127 56 -579 187 -696 201 -13 2
-45 8 -70 14 -26 6 -58 13 -72 15 -14 3 -36 8 -50 11 -14 3 -44 8 -66 11 l-42
6 4 -33z"/>
<path d="M6100 3729 c-19 -5 -51 -11 -70 -14 -19 -2 -78 -14 -130 -25 -52 -11
-105 -22 -117 -24 -64 -14 -309 -81 -406 -112 -123 -40 -324 -119 -346 -138
-8 -6 -16 -10 -18 -8 -4 3 -178 -83 -233 -115 -19 -11 -50 -29 -67 -39 -18
-11 -33 -22 -33 -26 0 -5 -5 -8 -10 -8 -9 0 -33 -16 -153 -100 -12 -8 -29 -22
-38 -30 -8 -8 -47 -41 -85 -72 -99 -83 -268 -260 -323 -341 -8 -12 -17 -24
-20 -27 -14 -13 -71 -99 -71 -108 0 -6 -4 -12 -8 -14 -10 -3 -19 -20 -83 -149
-80 -161 -176 -430 -215 -599 -11 -49 -54 -260 -59 -287 -3 -18 -8 -48 -11
-65 -3 -18 -7 -46 -9 -61 -2 -15 -7 -47 -10 -70 -17 -125 -24 -184 -31 -262
-3 -38 -7 -88 -9 -110 -22 -230 -26 -860 -7 -913 4 -11 21 -12 76 -7 95 8 245
34 268 46 10 5 18 8 18 5 0 -2 24 6 53 18 152 63 232 131 286 242 37 74 41 96
46 205 5 141 -38 304 -131 492 l-53 108 65 87 c36 48 72 95 79 105 8 9 15 19
15 21 0 3 17 31 39 63 87 131 209 365 281 538 23 55 47 114 55 130 14 32 29
76 30 87 0 3 3 10 8 14 4 4 7 14 7 22 0 8 6 28 14 45 13 29 56 156 62 182 9
37 49 162 55 171 5 5 57 16 116 23 470 56 813 218 1020 481 118 151 195 358
219 593 7 63 6 64 -66 46z"/>
</g>
</svg>
