<svg width="19" height="21" fill="none" xmlns="http://www.w3.org/2000/svg"><path fill-rule="evenodd" clip-rule="evenodd" d="M11.835 17.547c.349.618 1.746 3.303-1.776 3.453-.025.001-.132-1.575.07-3.453h1.706Zm-3.013 0H7.114c-.354.627-1.735 3.298 1.777 3.448.026.001.133-1.572-.069-3.448Z" fill="#AE4AC8"/><path fill-rule="evenodd" clip-rule="evenodd" d="M10.13 17.539c.121-1.151.359-2.415.803-3.499h2.733c-.456 1.303-1.013 2.414-1.857 3.46l.026.047h-1.706l.001-.008Zm-2.989-.044c-.78-1.032-1.342-2.107-1.806-3.312l-.048-.143H8.02c.443 1.085.68 2.349.801 3.499l.001.008H7.114l.027-.052Z" fill="#3B9DFA"/><path fill-rule="evenodd" clip-rule="evenodd" d="M10.971 13.953c.187-.45.412-.864.68-1.226.786-1.062 1.764-1.776 2.76-2.268h3.654c-.353 1.016-1.304 2.202-4.028 2.427-.11.373-.222.73-.343 1.072l-.028.082h-2.733l.036-.082.002-.005Zm-5.714 0a20.08 20.08 0 0 1-.343-1.072c-2.72-.225-3.672-1.407-4.026-2.422H4.55c.992.491 1.966 1.205 2.75 2.263.27.364.497.783.684 1.236l.036.082H5.286l-.027-.082-.002-.004ZM12.2 10.46c-2.099 1.166-2.656 2.3-2.71 2.42v.007l-.002-.003-.003.007v-.014c-.055-.12-.61-1.252-2.704-2.417h5.42Z" fill="#4DCEBE"/><path fill-rule="evenodd" clip-rule="evenodd" d="M14.428 10.451c1.425-.71 2.884-.965 3.859-1.147a4.56 4.56 0 0 1-.22 1.147l-.002.008H14.41l.017-.008Zm-13.543 0A4.566 4.566 0 0 1 .665 9.3c.976.182 2.44.438 3.868 1.152l.017.008H.888l-.003-.008Zm5.881 0c-.449-.251-.97-.503-1.572-.746-.983-.398-2.554-1.292-3.636-2.663h4.274c2.004.836 3.657 2.026 3.657 2.026a20.637 20.637 0 0 1 3.665-2.026h4.265c-1.082 1.373-2.655 2.268-3.639 2.666-.599.243-1.118.493-1.566.743l-.014.008H6.78l-.014-.008Z" fill="#F9D900"/><path fill-rule="evenodd" clip-rule="evenodd" d="M13.582 6.87h3.967l-.13.172h-4.265l.428-.172ZM1.425 6.867C.939 6.218.57 5.466.421 4.614A4.32 4.32 0 0 1 .375 3.46h1.662c.355 1.329 1.147 2.66 2.839 3.22.177.06.352.122.526.19l.43.171H1.558l-.133-.175Zm12.157.003c.17-.065.343-.127.516-.184 1.693-.561 2.486-1.895 2.84-3.225h1.66c.036.371.024.759-.045 1.156-.15.852-.518 1.605-1.004 2.253h-3.967Z" fill="#FFAD00"/><path fill-rule="evenodd" clip-rule="evenodd" d="M16.94 3.454c.46-1.73.181-3.45.181-3.45s1.318 1.491 1.476 3.45l.001.007h-1.66l.002-.007Zm-16.564 0C.533 1.494 1.853 0 1.853 0s-.28 1.723.182 3.454l.002.007H.375l.001-.007Z" fill="#FF537D"/></svg>